<svg version="1.1" xmlns="http://www.w3.org/2000/svg" viewBox="0 0 1277.5 342.54266625875607" width="3832.5" height="1027.6279987762682">
  <!-- svg-source:excalidraw -->
  
  <defs>
    <style class="style-fonts">
      @font-face {
        font-family: "Virgil";
        src: url("https://excalidraw.com/Virgil.woff2");
      }
      @font-face {
        font-family: "Cascadia";
        src: url("https://excalidraw.com/Cascadia.woff2");
      }
    </style>
  </defs>
  <rect x="0" y="0" width="1277.5" height="342.54266625875607" fill="#ffffff"></rect><g stroke-linecap="round" transform="translate(10 235.5) rotate(0 117.5 47.5)"><path d="M0.47 -0.69 C76.16 -0.51, 151.86 0.61, 233.98 -0.39 M0.07 -0.17 C84.75 1.54, 170.82 1.39, 234.27 -0.18 M236.63 1.71 C236.58 34.82, 236.61 73.28, 235.86 96.93 M235.17 -0.56 C236.46 28.77, 236.15 55.51, 234.37 94.62 M233.89 95.64 C157.32 97.49, 80.81 97.38, 1.43 96.38 M234.49 95.48 C151.56 93.3, 68.29 93.93, -0.07 95.2 M-0.67 94.36 C-2.48 75.23, -1.96 52.16, 1.41 -1.63 M0.17 95.74 C-0.4 72.04, 0.54 50.02, 0.56 -0.98" stroke="#000000" stroke-width="1" fill="none"></path></g><g stroke-linecap="round"><g transform="translate(73 236.5) rotate(0 -0.26831933663464724 44.92752700019628)"><path d="M0.59 1.93 C-1.66 22.08, -1.3 43.33, -0.53 90.55 M0.5 -0.84 C0.13 35.19, 0.5 69.2, -0.28 90.69" stroke="#000000" stroke-width="1" fill="none"></path></g></g><mask></mask><g stroke-linecap="round"><g transform="translate(193 237.5) rotate(0 -1.631872539408505 46.19281776016578)"><path d="M-0.67 -0.64 C-1.67 20.82, -2.01 38.38, -2.59 92.37 M0.17 0.74 C-2.36 21.38, -2.36 43.67, -3.44 93.02" stroke="#000000" stroke-width="1" fill="none"></path></g></g><mask></mask><g stroke-linecap="round" transform="translate(374.4999999999998 236.9895832813345) rotate(0 117.50000000000006 47.5)"><path d="M1.19 -1.68 C48.61 -0.08, 101.19 -2.76, 236.23 0.22 M-0.56 -0.02 C72.16 -1.74, 143.05 -1.5, 235.12 0.43 M234.11 1.74 C235.87 29.28, 234.27 58.71, 235.25 94.68 M234.83 -0.52 C234.51 29.62, 235.14 60.27, 234.58 95.39 M234.57 95.52 C148.6 96.79, 62.8 95.57, -0.18 93.34 M235.3 95.28 C159.13 96.74, 82.53 95.8, 0.81 94.21 M-1.15 96.31 C1.39 58.84, 0.78 23.42, -0.66 0.11 M0.37 95.93 C1.02 61.51, 0.25 26.37, -0.13 -0.02" stroke="#000000" stroke-width="1" fill="none"></path></g><g stroke-linecap="round"><g transform="translate(437.4999999999999 237.9895832813345) rotate(0 0.13192441727107962 45.755214837845415)"><path d="M-1.36 1.4 C2.62 30.94, 2.1 65.71, 0.07 91.77 M0.97 -0.26 C-0.18 33.94, -0.45 68.35, 0.11 89.47" stroke="#000000" stroke-width="1" fill="none"></path></g></g><mask></mask><g stroke-linecap="round"><g transform="translate(557.4999999999999 238.9895832813345) rotate(0 -0.809204628225416 45.883390930946916)"><path d="M1.99 -1.79 C0.02 19.11, -2.17 39.44, -2.46 92.68 M0.41 0.02 C-0.13 28.46, -1.36 55.38, -3.6 93.55" stroke="#000000" stroke-width="1" fill="none"></path></g></g><mask></mask><g stroke-linecap="round" transform="translate(702.4999999999999 235.9895832813345) rotate(0 117.5 47.5)"><path d="M-0.63 -0.95 C89.37 -0.58, 180.07 0.52, 234.24 -0.33 M0 0.77 C55.33 -0.38, 110.26 -0.21, 235.13 -0.27 M234.53 0.92 C236.02 22.87, 234.82 44.18, 233.25 96.64 M235.35 -0.06 C234.63 38.22, 234.89 76.02, 235.38 95.07 M236.66 93.74 C183.11 95.24, 129.85 96.17, -1.41 93.96 M235.62 95.28 C167.11 94.61, 100.38 93.93, 0.18 95.15 M0.83 95.96 C-1.21 58.06, -0.03 22.21, 1.24 1.98 M0.37 95.08 C1.21 60.95, 1.38 28.33, -0.81 -0.7" stroke="#000000" stroke-width="1" fill="none"></path></g><g stroke-linecap="round"><g transform="translate(765.4999999999999 236.9895832813345) rotate(0 -0.5956411165310556 45.0038721812889)"><path d="M-1.39 0.02 C-1.54 31.01, -1.24 58.98, -1.31 88.87 M0.24 -0.5 C0.02 26.54, 0.16 53.36, -0.68 90.5" stroke="#000000" stroke-width="1" fill="none"></path></g></g><mask></mask><g stroke-linecap="round"><g transform="translate(885.4999999999999 237.9895832813345) rotate(0 -2.0859370036050677 46.85660103941336)"><path d="M-1.21 1.32 C-2.53 22.51, -3.91 44.69, -4.04 94.01 M0.02 -0.3 C-1.18 36.43, -3.58 74.01, -4.19 93.77" stroke="#000000" stroke-width="1" fill="none"></path></g></g><mask></mask><g stroke-linecap="round" transform="translate(1032.5 233.9895832813345) rotate(0 117.5 47.5)"><path d="M1.17 -0.47 C89.75 -1.99, 182.27 -1.4, 235.93 0.23 M0.36 0.64 C81.27 -0.33, 161.39 -0.75, 234.76 0.15 M233.51 -0.99 C235.04 28.75, 236.12 55.3, 233.23 94.19 M235.68 -0.45 C235.48 33.39, 234.16 66.1, 234.45 95.51 M233.66 93.91 C179.36 94.11, 122.83 94.94, -1.41 94.94 M235.54 94.91 C167.55 93.8, 99.21 94.15, 0.22 94.52 M1.17 96.88 C0.54 64.12, -0.22 35.03, 0.56 -0.88 M0.5 94.16 C0.7 69.41, -0.8 44.42, -0.54 -0.72" stroke="#000000" stroke-width="1" fill="none"></path></g><g stroke-linecap="round"><g transform="translate(1095.5 234.9895832813345) rotate(0 0.14244601363338916 44.75328443385661)"><path d="M-1.09 -0.76 C1.74 33.05, 1.73 66.51, 0.86 90.27 M0.82 0.17 C0.65 28.81, 0.1 58.45, -0.02 89.94" stroke="#000000" stroke-width="1" fill="none"></path></g></g><mask></mask><g stroke-linecap="round"><g transform="translate(1215.5 235.9895832813345) rotate(0 -1.207093307748437 47.26520305359736)"><path d="M1.11 -0.06 C-0.49 25.81, -1.83 51.35, -3.53 94.86 M0.26 -0.33 C-1.02 35.53, -2.26 70.65, -3.43 93.25" stroke="#000000" stroke-width="1" fill="none"></path></g></g><mask></mask><g stroke-linecap="round"><g transform="translate(219 267.5) rotate(0 79.72869664197788 -2.5430089137516916)"><path d="M0.02 -1.97 C41.38 -3.47, 85.27 -2.17, 157.79 -4.47 M0.16 -0.62 C46.73 -3.48, 92.89 -3.79, 159.44 -4.19" stroke="#000000" stroke-width="1" fill="none"></path></g><g transform="translate(219 267.5) rotate(0 79.72869664197788 -2.5430089137516916)"><path d="M131.34 4.3 C138.09 2.27, 147.34 2.13, 158.22 -3.66 M131.48 5.66 C139.58 2.04, 147.23 0.12, 159.88 -3.39" stroke="#000000" stroke-width="1" fill="none"></path></g><g transform="translate(219 267.5) rotate(0 79.72869664197788 -2.5430089137516916)"><path d="M131.19 -16.22 C137.86 -12.82, 147.15 -7.53, 158.22 -3.66 M131.33 -14.86 C139.41 -12.45, 147.11 -8.33, 159.88 -3.39" stroke="#000000" stroke-width="1" fill="none"></path></g></g><mask></mask><g stroke-linecap="round"><g transform="translate(413.9999999999999 302.5) rotate(0 -82.64308187877754 -0.18471054776455276)"><path d="M0.54 -0.16 C-50.72 -0.88, -97.95 -0.2, -164.31 -0.07 M0.22 -0.35 C-61.54 0.21, -121.61 0.29, -165.82 -0.25" stroke="#000000" stroke-width="1" fill="none"></path></g><g transform="translate(413.9999999999999 302.5) rotate(0 -82.64308187877754 -0.18471054776455276)"><path d="M-137.02 -10.46 C-147.21 -7.84, -153.33 -4.16, -164.13 -0.32 M-137.33 -10.66 C-148.38 -7.39, -157.75 -3.6, -165.64 -0.5" stroke="#000000" stroke-width="1" fill="none"></path></g><g transform="translate(413.9999999999999 302.5) rotate(0 -82.64308187877754 -0.18471054776455276)"><path d="M-137.17 10.06 C-147.23 6.55, -153.3 4.11, -164.13 -0.32 M-137.48 9.86 C-148.51 5.58, -157.83 1.81, -165.64 -0.5" stroke="#000000" stroke-width="1" fill="none"></path></g></g><mask></mask><g stroke-linecap="round"><g transform="translate(567.9999999999999 257.5) rotate(0 67.78432681690902 1.5351950259782825)"><path d="M1.39 1.88 C40.38 0.65, 80.85 1.87, 134.2 2.23 M0.36 0.8 C26.86 0, 54.46 0.27, 135.21 2.68" stroke="#000000" stroke-width="1" fill="none"></path></g><g transform="translate(567.9999999999999 257.5) rotate(0 67.78432681690902 1.5351950259782825)"><path d="M108.14 14.05 C114.63 8.61, 122.62 6.33, 134.41 2.91 M107.11 12.97 C112.18 10.01, 118.45 7.98, 135.41 3.35" stroke="#000000" stroke-width="1" fill="none"></path></g><g transform="translate(567.9999999999999 257.5) rotate(0 67.78432681690902 1.5351950259782825)"><path d="M108.7 -6.46 C115.05 -5.66, 122.87 -1.68, 134.41 2.91 M107.67 -7.54 C112.79 -6.4, 118.95 -4.32, 135.41 3.35" stroke="#000000" stroke-width="1" fill="none"></path></g></g><mask></mask><g stroke-linecap="round"><g transform="translate(730.9999999999999 297.5) rotate(0 -58.79812251543626 0.08304133757246746)"><path d="M1.92 -0.26 C-39.21 0.36, -81.47 0.96, -117.24 0.77 M-0.28 -0.38 C-40.87 -1, -83.18 -1.01, -119.52 0.92" stroke="#000000" stroke-width="1" fill="none"></path></g><g transform="translate(730.9999999999999 297.5) rotate(0 -58.79812251543626 0.08304133757246746)"><path d="M-89.8 -10.63 C-100.16 -6.63, -111.74 -2.24, -117.76 1.69 M-92.01 -10.75 C-100.5 -6.88, -110.79 -2.92, -120.04 1.83" stroke="#000000" stroke-width="1" fill="none"></path></g><g transform="translate(730.9999999999999 297.5) rotate(0 -58.79812251543626 0.08304133757246746)"><path d="M-89.05 9.88 C-99.85 6.98, -111.68 4.47, -117.76 1.69 M-91.26 9.76 C-100.16 6.43, -110.71 3.18, -120.04 1.83" stroke="#000000" stroke-width="1" fill="none"></path></g></g><mask></mask><g stroke-linecap="round"><g transform="translate(906.9999999999999 266.5) rotate(0 63.55243649054319 -0.7958346052805609)"><path d="M0.69 -1.15 C29.22 -1.32, 61.64 -2.1, 126.07 -1.75 M-0.49 0.03 C26.25 0.86, 52.23 -0.87, 127.6 -1.71" stroke="#000000" stroke-width="1" fill="none"></path></g><g transform="translate(906.9999999999999 266.5) rotate(0 63.55243649054319 -0.7958346052805609)"><path d="M100.27 7.85 C104.96 5.31, 113.49 2.42, 126.67 -1.45 M99.08 9.04 C105.12 7.33, 110.45 3.78, 128.19 -1.41" stroke="#000000" stroke-width="1" fill="none"></path></g><g transform="translate(906.9999999999999 266.5) rotate(0 63.55243649054319 -0.7958346052805609)"><path d="M99.94 -12.67 C104.57 -10.26, 113.18 -8.2, 126.67 -1.45 M98.75 -11.48 C104.99 -8.9, 110.38 -8.17, 128.19 -1.41" stroke="#000000" stroke-width="1" fill="none"></path></g></g><mask></mask><g stroke-linecap="round"><g transform="translate(1066 292.5) rotate(0 -67.15387268923223 2.9114180710166693)"><path d="M-0.53 -0.47 C-31.1 1.82, -63.02 2.66, -133.78 6.29 M-0.74 0.05 C-41.64 1.3, -83.16 4.08, -132.27 6.03" stroke="#000000" stroke-width="1" fill="none"></path></g><g transform="translate(1066 292.5) rotate(0 -67.15387268923223 2.9114180710166693)"><path d="M-105.11 -5.96 C-110.39 -1.75, -117.06 0.19, -134.05 5.32 M-105.31 -5.45 C-113.39 -2.21, -122.08 1.99, -132.55 5.06" stroke="#000000" stroke-width="1" fill="none"></path></g><g transform="translate(1066 292.5) rotate(0 -67.15387268923223 2.9114180710166693)"><path d="M-104.18 14.54 C-109.81 13.78, -116.7 10.75, -134.05 5.32 M-104.39 15.05 C-112.66 11.83, -121.63 9.58, -132.55 5.06" stroke="#000000" stroke-width="1" fill="none"></path></g></g><mask></mask><g stroke-linecap="round" transform="translate(208 28.5) rotate(0 61 30.5)"><path d="M-1.03 -1.42 C48.62 0.23, 93.46 0.96, 121.29 1.81 M-0.35 -0.05 C48.42 0.26, 95.65 0.38, 122.86 -0.84 M122.9 -0.07 C122.56 15.94, 120.48 33.9, 123.12 59.27 M121.41 0.91 C121.57 20.86, 122.33 41.01, 121.04 60.01 M121.37 60.49 C72.92 62.48, 24.84 62.63, -1.53 59.66 M121.31 61.5 C83.62 61.31, 44.26 60.98, 0.89 60.72 M-1.58 61.21 C-0.28 37.45, -1.99 13.9, 0.77 1.85 M-0.76 60.36 C0.97 42.07, 0.07 22.06, -0.26 0.08" stroke="#000000" stroke-width="1" fill="none"></path></g><g transform="translate(237.11666679382324 41.5) rotate(0 31.883333206176758 17.5)"><text x="31.883333206176758" y="0" font-family="Virgil, Segoe UI Emoji" font-size="28px" fill="#000000" text-anchor="middle" style="white-space: pre;" direction="ltr" dominant-baseline="text-before-edge">head</text></g><g stroke-linecap="round" transform="translate(821.9999999999999 10) rotate(0 61 30.5)"><path d="M-0.19 1.78 C37.2 2.66, 75.66 1.29, 120.42 0.21 M-0.06 0.38 C36.12 1.37, 69.78 0.98, 121.24 -0.64 M121.83 -0.51 C122.46 23.32, 124.04 44.14, 122.5 59.19 M121.48 0.42 C122.38 17.96, 122.33 35.95, 122.42 60.3 M121.34 61.54 C85.14 62.78, 48.13 62.71, 1.94 59.26 M122.31 61.15 C77.29 60.28, 30.47 61.03, 0.13 61.99 M-1.82 61.51 C-0.14 44.77, -1.14 31.48, -1.63 -0.44 M0.33 61.49 C0.67 39.75, 0.46 20.14, -0.49 0.68" stroke="#000000" stroke-width="1" fill="none"></path></g><g transform="translate(858.9999999999999 23) rotate(0 24 17.5)"><text x="24" y="0" font-family="Virgil, Segoe UI Emoji" font-size="28px" fill="#000000" text-anchor="middle" style="white-space: pre;" direction="ltr" dominant-baseline="text-before-edge">tail</text></g><g transform="translate(22 267.5) rotate(0 21.858333587646484 17.5)"><text x="0" y="0" font-family="Virgil, Segoe UI Emoji" font-size="28px" fill="#000000" text-anchor="start" style="white-space: pre;" direction="ltr" dominant-baseline="text-before-edge">null</text></g><g transform="translate(1217.1416664123535 260) rotate(0 21.858333587646484 17.5)"><text x="0" y="0" font-family="Virgil, Segoe UI Emoji" font-size="28px" fill="#000000" text-anchor="start" style="white-space: pre;" direction="ltr" dominant-baseline="text-before-edge">null</text></g><g stroke-linecap="round"><g transform="translate(266 93.5) rotate(0 -64.25759524619207 69.11987106269225)"><path d="M-1.56 0.61 C-48.54 53.79, -96.42 105.24, -128.91 139.17 M0.4 -0.93 C-39.33 43.82, -77.6 85.71, -128.56 138.19" stroke="#000000" stroke-width="1" fill="none"></path></g><g transform="translate(266 93.5) rotate(0 -64.25759524619207 69.11987106269225)"><path d="M-118.04 111.34 C-122.11 121.23, -126.04 130.38, -129.48 138.36 M-116.08 109.8 C-120.65 119.73, -122.94 127, -129.12 137.38" stroke="#000000" stroke-width="1" fill="none"></path></g><g transform="translate(266 93.5) rotate(0 -64.25759524619207 69.11987106269225)"><path d="M-103.22 125.53 C-113.04 130.16, -122.59 133.93, -129.48 138.36 M-101.26 123.99 C-110.53 129.54, -117.42 132.4, -129.12 137.38" stroke="#000000" stroke-width="1" fill="none"></path></g></g><mask></mask><g stroke-linecap="round"><g transform="translate(886.9999999999999 72.5) rotate(0 125.42818450060417 80.59461800911868)"><path d="M-0.59 0.94 C65.84 41.9, 130.06 83.17, 250.25 161.38 M0.57 -0.19 C82.96 52.6, 166.76 105.39, 251.44 159.92" stroke="#000000" stroke-width="1" fill="none"></path></g><g transform="translate(886.9999999999999 72.5) rotate(0 125.42818450060417 80.59461800911868)"><path d="M221.37 154.62 C230.46 155.55, 237.52 157.39, 250.43 161.79 M222.94 153.09 C231.5 156.11, 242.28 158.13, 252.05 159.8" stroke="#000000" stroke-width="1" fill="none"></path></g><g transform="translate(886.9999999999999 72.5) rotate(0 125.42818450060417 80.59461800911868)"><path d="M232.44 137.34 C238.79 142.69, 243 148.98, 250.43 161.79 M234.01 135.81 C238.95 144.6, 246.07 152.33, 252.05 159.8" stroke="#000000" stroke-width="1" fill="none"></path></g></g><mask></mask></svg>