<svg version="1.1" xmlns="http://www.w3.org/2000/svg" viewBox="0 0 1021.2666625976561 432.5" width="3063.7999877929683" height="1297.5">
  <!-- svg-source:excalidraw -->
  
  <defs>
    <style class="style-fonts">
      @font-face {
        font-family: "Virgil";
        src: url("https://excalidraw.com/Virgil.woff2");
      }
      @font-face {
        font-family: "Cascadia";
        src: url("https://excalidraw.com/Cascadia.woff2");
      }
    </style>
  </defs>
  <rect x="0" y="0" width="1021.2666625976561" height="432.5" fill="#ffffff"></rect><g stroke-linecap="round" transform="translate(10 12) rotate(0 62 26)"><path d="M1.88 -0.17 C48.02 1.41, 94.68 -0.96, 125.62 -1.55 M0.77 -0.95 C42.68 -0.47, 85.14 0.42, 124.87 -0.25 M122.74 -0.14 C122.51 20.77, 124.11 37.96, 123.23 52.2 M123.25 0.81 C124.54 13.11, 123.27 24.11, 124.51 51.07 M122.65 52.45 C82.41 51.51, 43.15 53.47, 0.7 52.81 M124.73 52.21 C85.7 53.18, 47.74 52.4, 0.37 51.45 M-1.28 51.34 C-1.58 37.91, -1.66 26.29, -1.57 -0.68 M0.8 51.24 C-0.67 35.54, -0.58 18.32, -0.46 -0.18" stroke="#000000" stroke-width="1" fill="none"></path></g><g transform="translate(49.058332443237305 20.5) rotate(0 22.941667556762695 17.5)"><text x="22.941667556762695" y="0" font-family="Virgil, Segoe UI Emoji" font-size="28px" fill="#000000" text-anchor="middle" style="white-space: pre;" direction="ltr" dominant-baseline="text-before-edge">"m1"</text></g><g stroke-linecap="round" transform="translate(14 128) rotate(0 62 26)"><path d="M0 0 C0 0, 0 0, 0 0 M0 0 C0 0, 0 0, 0 0 M0.04 6.59 C1.49 3.92, 4.29 1.51, 5.16 0.59 M-0.52 6.1 C1.84 4.46, 3.52 1.44, 5.03 0.25 M0.79 11.75 C3.72 10.18, 6.76 4.92, 11.67 1.29 M0.44 11.72 C2.91 8.42, 6.05 5.75, 10.69 -0.57 M0.4 18.17 C2.2 14.18, 8.32 8, 13.94 -1.33 M-0.3 19.35 C4.67 12.95, 8.89 8.85, 16.27 0.14 M1.07 24.36 C6.35 15.67, 17.52 6.25, 22.63 -0.31 M0.72 24.79 C6.91 16.04, 13.17 8.91, 21.58 0.38 M0.29 30.84 C5.18 23.09, 11.24 16.75, 28 0.14 M-0.53 30.66 C8.85 18.97, 19.45 8.27, 25.84 0.37 M-1.66 37.24 C10.78 21.84, 22.78 8.79, 33.52 0.88 M0.11 36.68 C11.85 23.22, 25.65 9.11, 31.77 -0.36 M1.82 44.15 C9.5 31.6, 17.59 22.98, 38.15 -0.04 M-0.07 42.56 C11.15 29.25, 22.04 18.67, 36.23 0.66 M1 49.06 C16.21 33.7, 30.12 15.43, 42.92 -1.73 M-0.76 49.9 C13.94 34.58, 26.7 18.05, 42.23 -0.62 M1 51.3 C14.67 39.62, 24.9 27.51, 48.99 -0.77 M2.11 54.04 C12.17 40.26, 23.77 27.91, 47.61 0.97 M7.91 51.72 C19.37 38.66, 33.01 24.48, 52.18 -1.56 M6.99 53.77 C20.9 35.93, 38.28 16.93, 53.11 0.42 M11.43 51.42 C29.01 31.5, 44.04 14.29, 57.12 -0.53 M12.89 53.02 C23.81 40.09, 33.88 27.42, 58.91 0.24 M17.44 51.41 C33.9 34.85, 47 17.08, 63.69 -0.58 M16.48 52.46 C30.24 36.07, 45.48 20.31, 62.8 -0.92 M22.67 54.75 C31.94 40.82, 44.23 28.17, 69.19 0.71 M22.27 52.62 C36.48 35.47, 52.09 18.57, 68.75 -0.58 M28.69 54.31 C40.09 39.85, 50.83 29.31, 74.85 0.71 M27.2 53.63 C46.1 32.51, 63.87 11.61, 74.96 0.21 M32.52 54.4 C43.06 40.89, 55.1 28.5, 79.89 -0.56 M32.71 53.84 C47.22 36.68, 61.15 21.9, 78.51 0.51 M36.69 54.52 C54.04 37.03, 66.33 18.81, 84.1 1.27 M39.36 53.47 C54.75 33.73, 71.84 15.44, 85.43 0.18 M43.79 50.98 C60.58 31.07, 80.87 10.98, 89.91 -1.39 M44.89 53.26 C53.37 42.48, 64.19 30.67, 89.3 -0.5 M50.54 52.63 C60.16 42.47, 66.48 30.6, 96.93 1.56 M48.87 54.15 C61.26 39.19, 73.19 24.75, 95.34 -0.14 M54.33 54.54 C70.2 34.73, 88.69 14.8, 100.01 1.64 M54.72 51.92 C66.58 40.24, 78.12 26.24, 100.98 -0.6 M59.34 53.68 C70.23 38.15, 84.34 25.83, 107.84 1.47 M60.39 52.87 C77.11 33.49, 93.93 12.33, 106 -0.35 M66.38 55.37 C77.32 37.39, 90.32 21.13, 112.95 -1.57 M65.7 53.17 C79.99 37.29, 94.02 21.58, 111.1 -0.77 M70.26 53.19 C87.57 32.44, 105.68 13.47, 117.7 -0.86 M70.31 52.84 C82.74 39.85, 92.92 26.71, 115.34 1.21 M75.15 54.97 C95.88 31.18, 112.56 10.1, 123.55 -0.66 M74.52 52.6 C92.41 34.7, 107.53 15.6, 122 -0.96 M82.46 55.15 C92.7 37.02, 108.07 21.16, 125.1 3.41 M81.76 52.29 C93.21 39.41, 105.54 24.73, 126.16 0.96 M86.93 52.56 C98.42 42.46, 108.91 29.2, 126.06 8.74 M86.14 53.57 C95.56 42.29, 105.69 30.65, 125.15 8.43 M93.16 54.01 C100 42.72, 112.2 30.42, 127.1 14.4 M91.59 53.48 C101.27 41.01, 111.6 30.11, 125.98 13.67 M95.7 52.08 C103.34 46.47, 108.79 38.89, 127.98 20.91 M97.42 53.21 C102.29 45.19, 110.27 37.9, 125.96 19.45 M103.59 52.7 C111.97 43.48, 119.97 34.3, 127.51 27.35 M101.41 53.66 C106.76 47.65, 112.13 41.45, 126.25 25.21 M108.46 52.93 C111.55 49.06, 117.2 43.88, 127.49 31.84 M107.44 54.16 C113.72 47.39, 119.17 41.13, 126.23 31.43 M113.03 52.6 C116.55 47.75, 120.21 44.32, 124.01 37.48 M112.54 52.1 C118.27 47.46, 123.09 42.81, 126.47 38.57 M118.69 52.57 C120.27 50.07, 124.25 46, 125.19 44.31 M118.26 53.52 C121.07 50.55, 123.56 47.56, 126.21 44.72" stroke="#228be6" stroke-width="0.5" fill="none"></path><path d="M-1.09 -0.92 C27.21 -1.75, 52.46 -1.12, 122.51 -0.87 M-0.34 0.32 C27.84 1.09, 55.71 0.21, 123.53 0.79 M123.65 -1.53 C122.75 11.91, 125.58 27.73, 125.25 50.19 M123.07 0.51 C124.26 16.23, 124.66 32.24, 123.09 52.42 M124.73 52.1 C74.5 51.75, 28.26 52.46, -0.39 53.76 M123.4 52.97 C97.97 53.49, 72.92 53.71, 0.03 51.02 M-1.67 52.83 C-0.17 34.86, 1.32 16.89, 1.58 0.42 M-0.21 52.77 C0.23 38.82, 0.21 23.91, 0.24 0.88" stroke="#000000" stroke-width="1" fill="none"></path></g><g transform="translate(50.89999961853027 136.5) rotate(0 25.100000381469727 17.5)"><text x="25.100000381469727" y="0" font-family="Virgil, Segoe UI Emoji" font-size="28px" fill="#000000" text-anchor="middle" style="white-space: pre;" direction="ltr" dominant-baseline="text-before-edge">"m2"</text></g><g stroke-linecap="round" transform="translate(15 256) rotate(0 62 26)"><path d="M-1.61 0.21 C40.09 0.32, 83.13 0.93, 124.83 -0.36 M-0.22 0.65 C43.93 -0.76, 86.17 -0.67, 124.38 -0.4 M125.86 0.15 C122.6 12.82, 124.96 26.5, 124.53 51.73 M123.33 -0.84 C123.23 11.29, 124.06 23.78, 123.83 52.91 M125.19 53.31 C81.22 53.65, 38.22 50.77, 0.81 52.28 M123.84 52.68 C97.27 53.09, 70.65 53.22, 0.46 52.71 M-1.39 52.63 C1.32 33.48, 1 19.05, 0.29 0.36 M0.54 52.88 C-0.11 40, 0.85 26.22, -0.53 0.18" stroke="#000000" stroke-width="1" fill="none"></path></g><g transform="translate(67.97500038146973 264.5) rotate(0 9.024999618530273 17.5)"><text x="9.024999618530273" y="0" font-family="Virgil, Segoe UI Emoji" font-size="28px" fill="#000000" text-anchor="middle" style="white-space: pre;" direction="ltr" dominant-baseline="text-before-edge">...</text></g><g stroke-linecap="round" transform="translate(13 368) rotate(0 62 26)"><path d="M0.36 -1.07 C40.95 -1.53, 82.71 1.58, 123.85 1.62 M0.18 -0.89 C48.15 0.36, 97.15 0.25, 124.07 0.62 M124.37 -0.34 C122.48 19.26, 122.81 40.08, 124.98 53.76 M123.8 -0.71 C124.75 11.46, 124.99 21.59, 123.75 51.51 M125.63 52.07 C88.84 51.99, 56.07 54.32, -0.29 51.75 M124.04 52.09 C96.75 52.16, 71.87 51.08, 0.41 52.59 M0.14 53.29 C2.46 33.62, 1.8 15.85, -1.59 0.29 M0.98 52.23 C1.18 40.49, 0.07 29.53, -0.48 -0.53" stroke="#000000" stroke-width="1" fill="none"></path></g><g transform="translate(65.97500038146973 376.5) rotate(0 9.024999618530273 17.5)"><text x="9.024999618530273" y="0" font-family="Virgil, Segoe UI Emoji" font-size="28px" fill="#000000" text-anchor="middle" style="white-space: pre;" direction="ltr" dominant-baseline="text-before-edge">...</text></g><g stroke-linecap="round" transform="translate(327 10) rotate(0 124.99999999999994 27.5)"><path d="M0.35 0.18 C97.97 2.23, 192.84 0.6, 250.57 1.26 M-0.71 0.66 C93.46 -0.93, 185.4 -0.25, 250.57 0.68 M250.27 -1.64 C248.12 21.54, 248.76 41.01, 248.71 53.96 M250.51 -0.04 C250.14 21.64, 251.14 43.85, 250.4 55.92 M251.12 54.77 C171.1 53.11, 94.3 52.69, 0.15 56.61 M249.32 54.54 C165.26 53.32, 79.69 52.54, -0.57 54.83 M-1.6 55.44 C0.15 33.42, 0.47 12.46, 0.41 0.64 M-0.91 54.34 C0.29 38.78, 0.3 23.1, -0.77 -0.79" stroke="#000000" stroke-width="1" fill="none"></path></g><g transform="translate(447.24166679382313 20) rotate(0 4.758333206176758 17.5)"><text x="4.758333206176758" y="0" font-family="Virgil, Segoe UI Emoji" font-size="28px" fill="#000000" text-anchor="middle" style="white-space: pre;" direction="ltr" dominant-baseline="text-before-edge">1</text></g><g stroke-linecap="round" transform="translate(328.9999999999999 127.5) rotate(0 125 27.5)"><path d="M0 0 C0 0, 0 0, 0 0 M0 0 C0 0, 0 0, 0 0 M0.01 5.89 C1.1 5.63, 1.5 3.16, 4.52 -0.4 M-0.39 6.67 C1.14 4.4, 2.33 3.44, 5.36 0.22 M1.53 11.5 C2.58 7.81, 4.8 5.29, 10.9 1.14 M0.8 11.25 C3.37 8.85, 5.86 5.88, 11.27 -0.36 M-2.05 17.66 C5.02 12.77, 8.02 10.65, 14.31 -0.83 M0.09 17.93 C2.86 14.75, 7.2 10.01, 16.52 1.04 M-0.48 23.96 C6.88 16.2, 10.15 10.06, 21.25 -0.39 M1.15 23.65 C5.05 17.28, 9.82 12.56, 20.47 -0.01 M-0.85 32.17 C7 23.6, 15.21 14.02, 24.67 1.85 M0 30.15 C4.96 24.47, 10.73 19.06, 25.63 -0.2 M-0.99 38.6 C9.07 24.92, 18.85 13, 33.55 1.84 M0.45 37.72 C6.73 28.16, 14.38 20.36, 31.57 0.41 M-1.8 43.89 C10.88 29.19, 21.21 17.95, 34.99 0.07 M1.13 41.95 C11.1 29.34, 22.4 14.92, 37.66 -0.05 M-1.88 48.98 C11.56 36.16, 21.24 23.55, 40.75 -0.8 M-0.61 49.63 C10.22 38.26, 19.36 26.62, 43.14 -0.61 M0.34 53.5 C15.39 37.21, 29.48 20.32, 49.37 -0.13 M0.71 54.11 C19.01 34.2, 36.51 13.22, 47.76 0.2 M3.32 56.5 C14.16 42.58, 28.14 29.93, 52.7 -1.77 M1.93 57.99 C15.68 42.68, 28.68 29.06, 53.84 -0.99 M7.7 56.11 C21.82 41.12, 37.38 21.5, 57.97 1.77 M8.08 57.81 C19.09 44.84, 30.23 33.7, 58.84 -0.74 M14.37 57.28 C29.82 40.03, 44.85 21.86, 62.34 -1.09 M13 57.68 C27.68 42.23, 41.37 27.3, 63.54 -0.14 M20.3 59.38 C36.47 39.74, 53.58 20.34, 66.97 -1.25 M18.67 57.9 C37.34 36.35, 56.34 12.83, 68.52 0.86 M21.96 58.97 C39.06 41.51, 56.21 23.9, 75.6 0.72 M23.18 57.66 C43.28 35.47, 62.4 11.32, 74.36 0.06 M29.86 59.42 C42.81 43.69, 55.88 28.65, 80.57 -1.72 M28.81 57.68 C45.48 38.93, 60.37 21.73, 80.16 0.74 M34.66 58.66 C44.82 45.58, 57.64 32.62, 85.45 0.61 M34.64 57.88 C47.7 43.24, 62.48 25.82, 85.66 0.23 M41.71 58.8 C55.98 36.41, 74.57 15.55, 91.02 0.28 M40.65 57.98 C59.85 34.83, 79.45 13.71, 89.85 -0.34 M45.1 57.89 C59.01 43.2, 70.79 30.79, 93.9 -1.03 M44.29 57.26 C63.47 38.51, 80.59 18.61, 95.03 0.52 M50.24 55.55 C67.18 39.41, 84.74 19.39, 100.59 -0.87 M50.59 57.12 C62.4 44.24, 73.47 30.43, 101.42 0.41 M55.92 56.68 C72.75 37.73, 90.59 16.85, 106 -2.32 M56.77 56.79 C74.18 36.11, 92 17.43, 107.27 -0.4 M60.86 57.17 C77.36 39.13, 92.87 23.05, 111.57 1.7 M62.27 57.96 C72.99 44.78, 84.21 31.33, 111.43 0.77 M65.8 59.53 C76.12 46.31, 87.83 32.28, 115.15 -1.15 M65.44 58.44 C78.02 43.13, 89.11 30.24, 116.8 0.38 M72.02 58.63 C83.5 44.1, 98.15 27.79, 120.31 1.32 M71.56 56.84 C81.58 44.5, 92.72 33.3, 122.19 0.55 M75.44 57.37 C86.11 44.51, 99.13 33.21, 127.76 -0.22 M77.44 58.21 C90.39 43.82, 101.72 29.61, 127.22 0.04 M81.18 56.37 C99.52 39.28, 116.36 18.3, 131.17 -0.22 M83.55 56.66 C99.57 36.82, 117.5 17.87, 132.72 0.58 M89.6 57.65 C105.1 36.16, 122.97 17.78, 137.31 -0.5 M88.59 57.1 C98.94 44.86, 109.81 31.69, 138.39 -0.44 M94.87 58.3 C109.37 38.19, 128.02 15.6, 142.55 1.36 M93.58 57.81 C107.6 40.6, 123.45 23.04, 143.8 -0.31 M99.04 58.24 C115.35 37.56, 134.17 18.93, 148.97 1.77 M98.47 58.15 C114.69 40.62, 130.51 22.26, 148.07 -0.35 M102.6 57.8 C120.82 37.77, 137.12 19.18, 152.88 -1.21 M104.23 57.19 C113.98 43.59, 125.15 31.5, 152.91 -0.26 M110.56 57.51 C128.53 37.58, 146.06 17.13, 156.92 1.81 M109.41 57.39 C121.3 42.1, 136.23 26.08, 158.25 0.56 M114.96 55.7 C132.74 37.6, 145.42 19.92, 162.61 -0.73 M114.29 57.23 C131.92 36.59, 151.13 15.56, 165.3 0.6 M121 56.28 C130.27 46.79, 142.15 33.17, 170.4 0.31 M119.45 56.89 C136.73 37.75, 155.16 16.12, 170.17 1.02 M124.89 59.09 C143.15 37.58, 163.75 15.3, 176.24 -1.53 M125.16 57.63 C140.87 38.58, 158.58 18.16, 174.94 -0.84 M131.23 55.87 C144.76 41.33, 157.6 24.37, 179.65 1.41 M129.36 57.71 C139.89 46.14, 151.11 33.25, 179.27 -0.68 M136.33 56.23 C145.8 44.93, 156.53 30.81, 184.29 -1.45 M134.42 57.33 C153.3 37.69, 172.03 16.24, 185.52 0.31 M140.14 56.03 C155.02 37.54, 172.67 18.33, 189.97 -1.24 M141.67 56.95 C159 35.38, 178.69 13.68, 190.27 0.23 M146.29 59.12 C163.88 37.83, 180.34 18.22, 197.3 -1.9 M144.93 58.06 C157.72 44.91, 168.72 32.22, 195.49 -0.02 M150.66 57 C159.83 46.25, 172.53 35.06, 199.68 1.45 M151.63 56.72 C163.1 44.06, 176.02 30.37, 202.09 0.06 M157.45 58.5 C172 40.59, 187.12 22.55, 207.88 -1.78 M156.41 58.3 C174.32 36.9, 194.74 14.09, 207.03 0.1 M163.75 57.48 C175.25 43.13, 187.73 24.11, 210.12 0.04 M162.22 57.12 C172.51 43.86, 185.98 29.66, 212.9 -0.38 M167.56 58.54 C180.26 41.62, 192.32 28.57, 216.62 0.44 M167.86 57.07 C178.47 45.75, 188.94 33.74, 217.03 -0.39 M172.4 56.65 C189.44 38.76, 208.17 18.3, 223.67 0.56 M173.16 57.3 C183.98 44.54, 196.47 31.8, 223.08 -0.76 M179.35 58.9 C189.61 46.47, 198.81 34.55, 230.19 0.79 M178.49 56.87 C198.85 35.83, 217.14 12.05, 228.14 -0.52 M183.63 56.15 C198.21 42.49, 211.57 24.85, 233.76 -1.49 M183.9 56.41 C201.67 34.81, 220.4 14.19, 232.29 -0.22 M186.63 56.72 C206.93 39.25, 222.95 20.51, 238.59 0.5 M188.73 56.75 C203.83 40.8, 218.12 23.51, 239.08 0.44 M192.5 58.09 C209.91 41.72, 223.31 23.5, 242.82 0.87 M194.64 56.61 C206.42 42.48, 220.01 29.17, 244.38 -0.42 M200.2 56.59 C216.11 41.75, 231.18 22.93, 247.86 1.02 M199.27 57.25 C218.65 35.6, 237.69 13.65, 248.27 0.99 M204.08 59.05 C221.84 37.92, 239.2 15.98, 254.36 2.33 M205.3 58.1 C219.52 40.6, 232.83 24.76, 252.49 1.8 M209.93 56.57 C222.54 41.41, 240.21 23.34, 250.86 6.83 M210.03 57.44 C220.7 45.56, 233.22 31.74, 251.68 9.18 M215.51 56.09 C224.21 46.99, 233.16 39.36, 252.32 14.36 M214.52 58.06 C221.88 48.88, 230.56 39.13, 253.4 14.38 M218.68 58.19 C229.74 42.31, 243.21 31.48, 254.29 19.3 M221.15 57.91 C232.98 42.87, 243.84 29.22, 252.83 21.52 M225.91 56.7 C233.1 47.53, 240.47 41.03, 250.77 24.51 M226.72 57.72 C234.1 46.97, 243.29 38.57, 252.2 26.41 M232.38 56.45 C235.77 50.58, 241.53 45.07, 252.25 33.01 M230.03 57.73 C238.63 49.92, 244.9 41.12, 253.31 32.27 M237.82 57.64 C241.45 53.62, 247.04 45.87, 251.63 38.39 M236.34 58.05 C238.9 54.17, 243.09 49.69, 253.04 39.08 M241.89 57.79 C245.04 53.08, 247.48 48.79, 253.43 44.78 M242.15 57.54 C246.24 52.16, 250.31 47.08, 253.09 45.38 M246.15 58.78 C247.47 55.26, 250.59 53.45, 253.02 51.87 M246.07 57.85 C248.35 55.47, 250.91 53.15, 252.78 51.42" stroke="#228be6" stroke-width="0.5" fill="none"></path><path d="M-1.5 -1.35 C98.74 1.51, 199.74 -0.11, 248.83 -1.13 M0.72 -0.65 C69.93 0.22, 139.48 0.35, 250.23 0.17 M249.27 -1.82 C248.59 18.2, 248.65 36.46, 248.54 53.47 M250.48 0.72 C249.37 13.03, 250.08 24.52, 250.47 55.97 M250.48 54.66 C175.18 52.19, 100.41 54.61, 0.74 53.63 M250.59 54.72 C190.57 54.6, 130.92 54.22, -0.28 54.95 M1.79 55.48 C-1.46 39.95, 0.03 20.44, 0.79 0.18 M0.61 55.48 C0.11 40.33, -0.73 26.32, 0.77 0.61" stroke="#000000" stroke-width="1" fill="none"></path></g><g transform="translate(447.08333349227894 137.5) rotate(0 6.916666507720947 17.5)"><text x="6.916666507720947" y="0" font-family="Virgil, Segoe UI Emoji" font-size="28px" fill="#000000" text-anchor="middle" style="white-space: pre;" direction="ltr" dominant-baseline="text-before-edge">2</text></g><g stroke-linecap="round" transform="translate(327.9999999999998 256.5) rotate(0 124.99999999999994 27.5)"><path d="M-1.2 -1.54 C88.56 -0.63, 181.12 0.68, 248.97 0.39 M-0.48 -0.78 C92.89 1.25, 186.99 1.21, 250.55 0.01 M251.87 -0.72 C248.92 10.25, 249.3 24.51, 249.32 54.59 M250.17 0.73 C249.17 13.07, 249.52 26.05, 249.01 55.89 M251.3 54.33 C181.79 53.06, 115.77 52.77, -0.63 56.1 M249.47 54.53 C192.91 56.13, 136.4 55.83, -0.41 54.25 M1.81 56.43 C-0.18 35.01, 1.65 11.34, -0.12 1.02 M-0.01 54.84 C-0.07 42.24, 1.24 28.93, -0.43 -0.34" stroke="#000000" stroke-width="1" fill="none"></path></g><g transform="translate(443.9750003814694 266.5) rotate(0 9.024999618530273 17.5)"><text x="9.024999618530273" y="0" font-family="Virgil, Segoe UI Emoji" font-size="28px" fill="#000000" text-anchor="middle" style="white-space: pre;" direction="ltr" dominant-baseline="text-before-edge">...</text></g><g stroke-linecap="round" transform="translate(330.9999999999998 367.5) rotate(0 124.99999999999994 27.5)"><path d="M-0.1 0.83 C92.39 -0.44, 186.09 0.75, 249.73 -0.78 M-0.35 -0.27 C92.4 -2.51, 186.36 -2.45, 250.04 -0.31 M251.69 0.12 C251.84 18.02, 250.17 31.54, 251.56 53.02 M249.67 -0.63 C250.02 10.87, 250.69 21.39, 249.51 54.98 M251.41 54.78 C175.92 54.2, 101.87 55.61, 1.59 53.93 M250.69 54.57 C172.44 56.09, 95.67 56.17, 0.42 54.97 M1.37 54.81 C-0.66 38.46, 0.61 21.51, -0.19 0.41 M-0.57 54.59 C0.23 32.39, -0.65 12.34, -0.3 -0.33" stroke="#000000" stroke-width="1" fill="none"></path></g><g transform="translate(446.9750003814694 377.5) rotate(0 9.024999618530273 17.5)"><text x="9.024999618530273" y="0" font-family="Virgil, Segoe UI Emoji" font-size="28px" fill="#000000" text-anchor="middle" style="white-space: pre;" direction="ltr" dominant-baseline="text-before-edge">...</text></g><g stroke-linecap="round"><g transform="translate(132 36) rotate(0 97.24332156591117 0.10785526175959603)"><path d="M-1.24 -0.98 C59.03 -1.52, 118.06 -2.12, 195.73 -0.27 M0.83 0.97 C48.24 1.92, 97.68 2.52, 194.84 -0.52" stroke="#000000" stroke-width="1" fill="none"></path></g><g transform="translate(132 36) rotate(0 97.24332156591117 0.10785526175959603)"><path d="M165.67 9.43 C175.39 6.75, 183.85 2.82, 196.57 -0.79 M167.74 11.39 C173.3 8.02, 180.9 5.87, 195.69 -1.05" stroke="#000000" stroke-width="1" fill="none"></path></g><g transform="translate(132 36) rotate(0 97.24332156591117 0.10785526175959603)"><path d="M165.17 -11.08 C175.01 -7.52, 183.63 -5.21, 196.57 -0.79 M167.24 -9.12 C172.92 -7.32, 180.64 -4.3, 195.69 -1.05" stroke="#000000" stroke-width="1" fill="none"></path></g></g><mask></mask><g stroke-linecap="round"><g transform="translate(138 152) rotate(0 97.23680290626362 -0.5426040213787928)"><path d="M0.48 0.66 C72.06 0.7, 144.75 -1.47, 192.51 -1.75 M0.54 0.61 C67.58 -1.69, 135.66 -2.55, 193.99 -0.23" stroke="#000000" stroke-width="1" fill="none"></path></g><g transform="translate(138 152) rotate(0 97.23680290626362 -0.5426040213787928)"><path d="M166.05 10.03 C175.18 6.87, 185.34 1.45, 192.5 -0.98 M166.11 9.98 C175.56 5.86, 186.02 2.01, 193.98 0.53" stroke="#000000" stroke-width="1" fill="none"></path></g><g transform="translate(138 152) rotate(0 97.23680290626362 -0.5426040213787928)"><path d="M166.53 -10.49 C175.29 -5.9, 185.28 -3.57, 192.5 -0.98 M166.58 -10.54 C175.78 -7.51, 186.06 -4.22, 193.98 0.53" stroke="#000000" stroke-width="1" fill="none"></path></g></g><mask></mask><g stroke-linecap="round"><g transform="translate(140 281) rotate(0 96.56369909690693 2.07275846414268)"><path d="M-0.58 -1.43 C57.41 1.29, 117.05 0.56, 192.84 5.58 M-0.2 0.27 C41.32 -0.66, 82.83 1.22, 193.71 3.07" stroke="#000000" stroke-width="1" fill="none"></path></g><g transform="translate(140 281) rotate(0 96.56369909690693 2.07275846414268)"><path d="M164.74 11.35 C172.1 11.21, 181.05 6.25, 193.54 4.65 M165.12 13.06 C171.69 10.33, 178.27 9.3, 194.41 2.14" stroke="#000000" stroke-width="1" fill="none"></path></g><g transform="translate(140 281) rotate(0 96.56369909690693 2.07275846414268)"><path d="M165.14 -9.16 C172.3 -2.99, 181.13 -1.63, 193.54 4.65 M165.52 -7.46 C172.04 -5.83, 178.54 -2.51, 194.41 2.14" stroke="#000000" stroke-width="1" fill="none"></path></g></g><mask></mask><g stroke-linecap="round"><g transform="translate(140 393) rotate(0 93.40675123082474 1.2799446862190962)"><path d="M1.66 -1.78 C41.42 0.82, 85.25 0.85, 186.02 4.34 M0.79 0.24 C59.29 1.08, 116.03 1.58, 184.22 3.64" stroke="#000000" stroke-width="1" fill="none"></path></g><g transform="translate(140 393) rotate(0 93.40675123082474 1.2799446862190962)"><path d="M157.44 11.41 C161.4 10.94, 169.41 8.1, 185.24 4.98 M156.57 13.43 C165.47 10.69, 172.74 7.22, 183.44 4.28" stroke="#000000" stroke-width="1" fill="none"></path></g><g transform="translate(140 393) rotate(0 93.40675123082474 1.2799446862190962)"><path d="M157.96 -9.1 C161.76 -4.88, 169.65 -3.03, 185.24 4.98 M157.09 -7.09 C166.02 -3.34, 173.13 -0.33, 183.44 4.28" stroke="#000000" stroke-width="1" fill="none"></path></g></g><mask></mask><g transform="translate(749.9999999999999 49) rotate(0 130.63333129882812 17.5)"><text x="0" y="0" font-family="Virgil, Segoe UI Emoji" font-size="28px" fill="#000000" text-anchor="start" style="white-space: pre;" direction="ltr" dominant-baseline="text-before-edge">shouldPrint("m2", 15)</text></g><g stroke-linecap="round"><g transform="translate(868.9999999999999 86) rotate(0 -151.85073173505225 33.47105517822547)"><path d="M-0.07 -0.92 C0.19 22.98, 2.39 43.45, 2.43 63.46 M0.76 0.36 C1.13 20.74, 1.04 40.67, 2.46 63.02 M2.78 61.58 C-79.57 61.8, -162.21 64.65, -307.4 67.86 M3.7 62.96 C-62.74 65.34, -129.16 66.17, -306.07 67.25" stroke="#000000" stroke-width="1" fill="none"></path></g><g transform="translate(868.9999999999999 86) rotate(0 -151.85073173505225 33.47105517822547)"><path d="M-278.03 55.87 C-288.98 61.44, -297.62 63.63, -306.64 67.71 M-277.2 57.14 C-286.66 60.55, -296.77 63.55, -306.62 67.27" stroke="#000000" stroke-width="1" fill="none"></path></g><g transform="translate(868.9999999999999 86) rotate(0 -151.85073173505225 33.47105517822547)"><path d="M-277.88 76.39 C-289.04 74.82, -297.73 69.87, -306.64 67.71 M-277.05 77.66 C-286.48 74.46, -296.64 70.84, -306.62 67.27" stroke="#000000" stroke-width="1" fill="none"></path></g></g><mask></mask><g stroke-linecap="round" transform="translate(513.9999999999999 123) rotate(0 26 32)"><path d="M11.35 5.89 C11.35 5.89, 11.35 5.89, 11.35 5.89 M11.35 5.89 C11.35 5.89, 11.35 5.89, 11.35 5.89 M2.59 23.77 C7.67 14.58, 14.33 8.33, 18.58 1.89 M2.32 22.29 C6.98 15.96, 12.22 10.18, 19.91 3.51 M1.24 28.1 C7.9 20.14, 17.94 11.29, 27.94 2.2 M3.12 28.71 C8.3 20.96, 16.17 12.67, 26.88 1.05 M2.39 35.57 C9.35 26.1, 18.86 14.28, 31.81 2.08 M1.37 34.57 C7.33 27.3, 15.44 20.29, 30.99 1.41 M1.33 42.95 C13.82 31.17, 20.47 16.92, 34.48 5 M1.83 41.8 C10.15 32.12, 17.97 24.1, 35.03 3.44 M4.65 44.79 C12.93 37.63, 20.96 27.29, 36.79 6.53 M4.03 46.01 C16.37 30.45, 28.36 17.89, 38.55 6.8 M7.33 47.94 C15.03 36.49, 24.47 28.16, 39.04 9.84 M5.36 48.55 C13.08 40.76, 19.91 31.17, 39.78 7.97 M8.32 50.4 C18.49 37.22, 30.04 26.42, 46.1 11.83 M7.64 51.93 C15.44 42.47, 24.5 33.44, 44.64 9.92 M12.28 54.6 C19.21 46.15, 28.95 36.48, 49.05 12.62 M10.78 54.57 C18.82 45.51, 28.34 36.96, 47.43 14.15 M12.55 59.47 C21.31 48.93, 31.99 39.88, 49.57 17.91 M12.79 59.45 C26.36 42.97, 38.17 28.53, 49.11 16.55 M16.93 61.74 C24.65 49.83, 35.88 36.7, 48.86 20.77 M15.43 62.93 C24.69 51.65, 34.73 40.08, 51.26 21.74 M21.88 64.26 C29 54.21, 34.87 44.85, 53.46 27.47 M19.5 63.61 C31.4 49.6, 42.18 38.21, 51.81 26.43 M26.43 62.37 C35.33 52.56, 44.24 41.16, 54.18 33.01 M24.59 62.16 C32.75 53.2, 41.36 44.2, 52.96 31.48 M31.02 62.88 C37.41 56.75, 40.46 52.4, 50.55 40.49 M29.02 64.95 C36.19 56.47, 42.91 48.2, 49.62 40.8 M34.57 66.15 C36.14 61.19, 41.61 59.3, 49.65 47.6 M34.75 65.58 C38.45 60.87, 41.15 55.95, 49.18 48.36" stroke="#fa5252" stroke-width="0.5" fill="none"></path><path d="M29 -0.35 C34.2 0.16, 41.46 6.01, 45.32 11.19 C49.19 16.37, 51.87 24.05, 52.19 30.71 C52.52 37.38, 50.82 45.84, 47.27 51.18 C43.72 56.51, 36.46 61.13, 30.89 62.71 C25.31 64.28, 18.62 63.67, 13.81 60.64 C9 57.6, 4.02 50.8, 2.02 44.48 C0.03 38.17, 0.29 29.19, 1.87 22.74 C3.44 16.28, 6.54 9.4, 11.48 5.75 C16.42 2.09, 28.03 1.42, 31.51 0.8 C34.99 0.18, 32.42 1.54, 32.37 2.03 M21.59 2.01 C26.77 0.38, 32.78 1.34, 37.55 4.46 C42.33 7.59, 48.2 14.26, 50.24 20.75 C52.29 27.24, 51.78 36.87, 49.82 43.41 C47.86 49.96, 43.08 56.83, 38.48 60.01 C33.88 63.2, 27.36 63.5, 22.23 62.5 C17.1 61.5, 11.57 58.86, 7.7 53.99 C3.83 49.12, -0.64 40.51, -0.99 33.28 C-1.35 26.05, 2.01 15.86, 5.57 10.61 C9.12 5.35, 17.8 3.52, 20.33 1.73 C22.87 -0.06, 20.42 -0.55, 20.77 -0.14" stroke="#000000" stroke-width="1" fill="none"></path></g><g transform="translate(528.9568899107684 137.3725830020303) rotate(0 11.158333778381348 17.5)"><text x="11.158333778381348" y="0" font-family="Virgil, Segoe UI Emoji" font-size="28px" fill="#000000" text-anchor="middle" style="white-space: pre;" direction="ltr" dominant-baseline="text-before-edge">15</text></g></svg>